<?xml version="1.0" encoding="utf-8"?>
<!-- Generator: Adobe Illustrator 19.2.0, SVG Export Plug-In . SVG Version: 6.00 Build 0)  -->
<svg version="1.1" id="Capa_1" xmlns="http://www.w3.org/2000/svg" xmlns:xlink="http://www.w3.org/1999/xlink" x="0px" y="0px"
	 viewBox="0 0 50 50" style="enable-background:new 0 0 50 50;" xml:space="preserve">
<style type="text/css">
	.st0{fill:#43B05C;}
	.st1{fill:none;stroke:#FFFFFF;stroke-width:3;stroke-linecap:round;stroke-linejoin:round;stroke-miterlimit:10;}
	.st2{fill:none;stroke:#43B05C;stroke-width:4;stroke-linecap:round;stroke-linejoin:round;stroke-miterlimit:10;}
	.st3{fill:none;stroke:#FF5245;stroke-width:4;stroke-linecap:round;stroke-linejoin:round;stroke-miterlimit:10;}
</style>
<circle class="st0" cx="25" cy="25" r="25"/>
<g>
	<path class="st0" d="M99.5,4c11.6,0,21,9.4,21,21s-9.4,21-21,21s-21-9.4-21-21S87.9,4,99.5,4 M99.5,0c-13.8,0-25,11.2-25,25
		s11.2,25,25,25s25-11.2,25-25S113.3,0,99.5,0L99.5,0z"/>
</g>
<line class="st1" x1="25" y1="15.6" x2="25" y2="34.4"/>
<line class="st1" x1="34.4" y1="25" x2="15.6" y2="25"/>
<polyline class="st2" points="89.9,24 97,32.4 109,17.6 "/>
<line class="st3" x1="456.7" y1="229.6" x2="471.8" y2="244.7"/>
<line class="st3" x1="471.8" y1="229.6" x2="456.7" y2="244.7"/>
</svg>
